<svg width="40" height="39" viewBox="0 0 40 39" fill="none" xmlns="http://www.w3.org/2000/svg">
<path d="M29.859 39H1C0.447715 39 0 38.5523 0 38V10.0858C0 5.04208 3.75603 0.78783 8.76085 0.162839L9.44526 0.0773715C9.85671 0.0259901 10.273 0.0259901 10.6844 0.0773716L11.94 0.234163C16.6946 0.827918 20.3599 4.7109 20.6787 9.4919L20.7587 10.6927L20.2817 17.8478C20.2012 19.0552 21.2029 20.0569 22.4103 19.9764L29.5654 19.4994L30.2511 19.5451C35.2582 19.8789 39.2425 23.872 39.5653 28.8798L39.6297 29.8794C39.2758 35.0149 35.0067 39 29.859 39Z" fill="#ECD6CA"/>
</svg>
